<?xml version="1.0" encoding="UTF-8" standalone="no"?>
<svg width="22px" height="22px" viewBox="0 0 22 22" version="1.1" xmlns="http://www.w3.org/2000/svg" xmlns:xlink="http://www.w3.org/1999/xlink" xmlns:sketch="http://www.bohemiancoding.com/sketch/ns">
    <!-- Generator: bin/sketchtool 1.4 (305) - http://www.bohemiancoding.com/sketch -->
    <title>Clip 11@0.5x</title>
    <desc>Created with bin/sketchtool.</desc>
    <defs></defs>
    <g id="Page-1" stroke="none" stroke-width="1" fill="none" fill-rule="evenodd" sketch:type="MSPage">
        <g id="v1" sketch:type="MSArtboardGroup" transform="translate(-1104.000000, -25.000000)" fill="#FFCC1B">
            <path d="M1122.936,25 L1106.7051,25 C1105.2112,25 1104,26.20417 1104,27.68939 L1104,43.82572 C1104,45.31093 1105.2112,46.5151 1106.7051,46.5151 L1122.936,46.5151 C1124.4299,46.5151 1125.6411,45.31093 1125.6411,43.82572 L1125.6411,27.68939 C1125.6411,26.20417 1124.4299,25 1122.936,25 L1122.936,25 L1122.936,25 Z M1110.6522,35.31145 C1110.6566,35.26875 1110.6658,35.22774 1110.6715,35.18572 C1110.6857,35.08151 1110.7013,34.97796 1110.7232,34.87644 C1110.7331,34.83072 1110.7466,34.78668 1110.7581,34.74163 C1110.7824,34.64549 1110.8078,34.54968 1110.8386,34.45622 C1110.8534,34.41185 1110.8707,34.36915 1110.8866,34.32545 C1110.9204,34.23401 1110.9556,34.14358 1110.9955,34.05517 C1111.0022,34.04004 1111.0069,34.02424 1111.0141,34.00911 L1111.0178,34.00911 C1111.6832,32.58138 1113.1335,31.58866 1114.8205,31.58866 C1116.5072,31.58866 1117.9575,32.58138 1118.6233,34.00911 L1118.627,34.00911 C1118.6341,34.02424 1118.6388,34.04004 1118.6459,34.05517 C1118.6855,34.14358 1118.721,34.23401 1118.7545,34.32545 C1118.7707,34.36915 1118.788,34.41185 1118.8025,34.45622 C1118.8336,34.54968 1118.8586,34.64515 1118.883,34.74163 C1118.8945,34.78668 1118.908,34.83072 1118.9181,34.87644 C1118.9398,34.97796 1118.955,35.08151 1118.9695,35.18572 C1118.9756,35.22774 1118.9841,35.26875 1118.9891,35.31145 C1119.0044,35.45802 1119.0135,35.60661 1119.0135,35.75755 C1119.0135,38.06034 1117.1358,39.9261 1114.8205,39.9261 C1112.5049,39.9261 1110.6276,38.05933 1110.6276,35.75755 C1110.6276,35.60661 1110.6367,35.45802 1110.6522,35.31145 L1110.6522,35.31145 L1110.6522,35.31145 Z M1123.2065,43.0189 C1123.2065,43.61325 1122.7219,44.09466 1122.1244,44.09466 L1107.5166,44.09466 C1106.9191,44.09466 1106.4346,43.61292 1106.4346,43.0189 L1106.4346,34.00945 L1108.4293,34.00945 C1108.2754,34.56615 1108.1929,35.15244 1108.1929,35.75755 C1108.1929,39.39663 1111.1601,42.34655 1114.8205,42.34655 C1118.4809,42.34655 1121.4481,39.39663 1121.4481,35.75755 C1121.4481,35.15244 1121.3656,34.56615 1121.2118,34.00945 L1123.2065,34.00945 L1123.2065,43.0189 L1123.2065,43.0189 Z M1123.2065,30.64771 C1123.2065,31.24173 1122.7219,31.72347 1122.1244,31.72347 L1119.9603,31.72347 C1119.3628,31.72347 1118.8782,31.24173 1118.8782,30.64771 L1118.8782,28.4962 C1118.8782,27.90218 1119.3631,27.42045 1119.9603,27.42045 L1122.1244,27.42045 C1122.7222,27.42045 1123.2065,27.90185 1123.2065,28.4962 L1123.2065,30.64771 L1123.2065,30.64771 Z" id="Clip-11" sketch:type="MSShapeGroup"></path>
        </g>
    </g>
</svg>