<?xml version="1.0" encoding="UTF-8" standalone="no"?>
<svg width="26px" height="16px" viewBox="0 0 26 16" version="1.1" xmlns="http://www.w3.org/2000/svg" xmlns:xlink="http://www.w3.org/1999/xlink" xmlns:sketch="http://www.bohemiancoding.com/sketch/ns">
    <!-- Generator: bin/sketchtool 1.4 (305) - http://www.bohemiancoding.com/sketch -->
    <title>Clip 17@0.5x</title>
    <desc>Created with bin/sketchtool.</desc>
    <defs></defs>
    <g id="Page-1" stroke="none" stroke-width="1" fill="none" fill-rule="evenodd" sketch:type="MSPage">
        <g id="v1" sketch:type="MSArtboardGroup" transform="translate(-1165.000000, -29.000000)" fill="#FFCC1B">
            <path d="M1178.57762,44.23077 C1179.42402,44.23077 1179.42402,43.01146 1179.42402,42.53846 C1179.42402,41.69231 1180.27042,40.84615 1181.11692,40.84615 C1181.96332,40.84615 1183.41492,42.29731 1184.50262,43.38461 C1185.34902,44.23077 1185.34902,44.23077 1186.19542,44.23077 L1188.73472,44.23077 C1188.73472,44.23077 1190.42752,44.16646 1190.42752,42.53846 C1190.42752,42.00961 1189.84772,41.11269 1187.88822,39.15385 C1186.19542,37.46154 1185.32702,38.33561 1187.88822,34.92308 C1189.44822,32.84492 1190.58332,30.96223 1190.38862,30.419 C1190.20242,29.90031 1185.86362,29.07446 1185.34902,29.84615 C1183.65612,32.38461 1183.34552,33.00654 1182.80972,34.07692 C1181.96332,35.76923 1181.87952,36.61538 1181.11692,36.61538 C1180.34752,36.61538 1180.27042,34.973 1180.27042,34.07692 C1180.27042,31.27954 1180.67592,29.30123 1179.42402,29 L1176.88472,29 C1175.52202,29 1174.34552,29.84615 1174.34552,29.84615 C1174.34552,29.84615 1173.29512,30.66523 1173.49912,30.69231 C1173.75132,30.72615 1175.19192,30.342 1175.19192,31.53846 L1175.19192,33.23077 C1175.19192,33.23077 1175.19952,36.61538 1174.34552,36.61538 C1173.49912,36.61538 1171.80622,33.23077 1170.11342,30.69231 C1169.44892,29.69638 1169.26692,29.84615 1168.42052,29.84615 C1167.51322,29.84615 1166.72852,29.88169 1165.88132,29.88169 C1165.03482,29.88169 1164.92652,30.42069 1165.03482,30.69231 C1166.72772,34.92308 1167.94402,37.58 1171.16042,40.92738 C1174.11022,43.99808 1176.08062,44.16138 1177.73122,44.23077 C1178.15442,44.24854 1177.73122,44.23077 1178.57762,44.23077 L1178.57762,44.23077 L1178.57762,44.23077 Z" id="Clip-17" sketch:type="MSShapeGroup"></path>
        </g>
    </g>
</svg>